<?xml version="1.0" standalone="no"?>
<!DOCTYPE svg PUBLIC "-//W3C//DTD SVG 20010904//EN"
 "http://www.w3.org/TR/2001/REC-SVG-20010904/DTD/svg10.dtd">
<svg version="1.0" xmlns="http://www.w3.org/2000/svg"
 width="1007.000000pt" height="262.000000pt" viewBox="0 0 1007.000000 262.000000"
 preserveAspectRatio="xMidYMid meet">

<g transform="translate(0.000000,262.000000) scale(0.100000,-0.100000)"
fill="#000000" stroke="none">
<path d="M0 1310 l0 -1310 200 0 200 0 0 707 0 708 557 557 558 558 825 0 826
0 44 45 44 45 -1627 0 -1627 0 0 -1310z"/>
<path d="M3245 2560 l-59 -60 -826 0 -825 0 -553 -553 -552 -552 0 -698 0
-697 4820 0 4820 0 0 1310 0 1310 -851 0 -850 0 3 -22 c3 -25 4 -25 73 -27
l45 -1 0 -55 0 -55 55 0 55 0 0 -54 0 -54 60 -7 60 -7 0 -54 0 -54 55 0 54 0
3 -57 3 -58 58 -3 57 -3 0 -54 0 -55 55 0 54 0 3 -57 c2 -37 7 -58 16 -59 6
-1 32 -2 57 -3 l45 -1 0 -55 0 -55 55 0 54 0 3 -57 3 -58 58 -3 57 -3 0 -54 0
-55 55 0 54 0 3 -57 3 -58 58 -3 57 -3 0 -54 0 -55 55 0 54 0 3 -58 3 -57 58
-3 57 -3 0 -64 0 -65 -70 0 -70 0 0 55 0 55 -54 0 -54 0 -7 55 -6 54 -52 3
-52 3 -3 57 -3 57 -57 3 -57 3 -3 51 c-3 49 -5 52 -34 58 -17 3 -41 6 -54 6
-22 0 -24 4 -24 55 l0 55 -54 0 c-52 0 -54 1 -60 31 -3 17 -6 42 -6 55 0 19
-5 24 -24 24 -13 0 -38 3 -55 6 -30 6 -31 8 -31 60 l0 54 -60 0 -60 0 0 60 0
60 -55 0 -55 0 0 55 0 54 -57 3 -58 3 -3 51 c-3 49 -5 52 -34 58 -17 3 -41 6
-54 6 -22 0 -24 4 -24 55 l0 55 -54 0 -55 0 -6 55 c-6 48 -10 55 -30 55 -12 0
-37 3 -54 6 -30 6 -31 8 -31 60 l0 53 -57 3 c-57 3 -58 3 -61 36 l-3 32 -417
0 -417 0 34 -21 c37 -23 33 -33 -18 -46 -29 -7 -36 -15 -45 -47 -13 -46 -27
-47 -42 -4 -11 33 -21 41 -67 58 -33 12 -28 26 13 35 16 4 32 11 35 16 4 5
-775 9 -1997 9 l-2004 0 -59 -60z m-1392 -511 c11 -43 19 -51 64 -64 51 -14
52 -32 4 -46 -48 -14 -54 -21 -71 -72 -14 -46 -31 -43 -45 6 -13 45 -21 53
-65 64 -48 13 -44 32 10 52 29 11 46 24 49 36 13 71 39 83 54 24z m3467 -38
c113 -23 147 -35 178 -63 l22 -21 0 46 0 47 258 0 257 0 147 -147 148 -148 2
-280 3 -280 95 -3 95 -3 45 -43 c25 -24 53 -46 63 -49 9 -4 22 -18 27 -32 11
-28 21 -31 51 -12 18 10 23 9 40 -12 10 -13 19 -40 20 -60 l1 -36 9 39 c5 22
11 41 13 43 7 7 136 -56 136 -66 0 -6 7 -8 15 -5 9 4 19 -3 26 -20 15 -33 -2
-141 -26 -165 -32 -32 -48 29 -32 124 5 30 4 34 -3 18 -5 -13 -12 -45 -16 -73
-5 -35 -11 -50 -22 -50 -15 0 -13 42 5 131 3 16 1 29 -4 29 -8 0 -24 -68 -40
-167 -4 -29 -2 -33 16 -33 18 0 21 -4 16 -27 -4 -23 -4 -24 4 -8 21 48 61 56
61 12 0 -19 2 -18 16 8 8 16 22 34 30 38 8 4 14 21 14 38 0 36 25 99 39 99 6
0 11 -10 11 -22 0 -17 3 -19 9 -9 7 11 11 10 20 -7 15 -28 14 -62 -4 -155 -16
-85 -22 -100 -35 -92 -4 3 -11 -3 -14 -12 -13 -32 -24 2 -17 49 11 66 -2 60
-22 -9 -9 -32 -21 -64 -26 -72 -12 -18 -31 -5 -31 22 0 18 -3 17 -16 -10 -21
-42 -43 -42 -51 0 l-7 32 -7 -30 c-4 -16 -7 -51 -8 -77 l-1 -48 -502 0 -502 0
-56 55 -57 56 -50 -34 c-169 -114 -566 -122 -810 -17 -35 15 -82 53 -158 130
-60 61 -112 110 -116 110 -3 0 -32 -67 -64 -150 l-58 -150 -241 0 -241 0 -155
155 -154 155 -52 132 c-41 108 -55 134 -72 136 -12 2 -31 15 -43 30 -18 24
-20 36 -16 97 l6 70 -17 -80 c-13 -59 -22 -81 -35 -83 -25 -5 -30 20 -18 90 7
41 7 64 1 66 -11 4 -14 35 -4 45 3 3 17 2 30 -3 13 -5 24 -6 24 -2 0 4 -23 69
-52 144 -52 136 -52 137 -81 131 -28 -6 -28 -5 -22 33 4 21 9 47 12 58 3 12 1
16 -6 12 -6 -4 -11 -15 -11 -24 0 -9 -9 -32 -20 -49 -26 -44 -75 -47 -91 -6
-22 59 20 163 66 163 14 0 25 4 25 9 0 7 -52 148 -105 284 -7 16 10 17 261 17
l269 0 146 -146 146 -146 50 144 51 143 268 3 c261 2 268 2 290 -19 l23 -21
63 21 c35 11 88 25 118 30 84 15 340 5 450 -18z m4064 -76 l21 -6 -22 -11
c-13 -6 -25 -20 -29 -31 -6 -20 -7 -20 -19 3 -7 13 -21 27 -31 31 -18 7 -17 8
3 14 12 4 25 17 29 29 l7 21 10 -22 c5 -12 19 -24 31 -28z m-2264 -110 c0 -8
10 -20 22 -26 l22 -12 -22 -8 c-12 -5 -22 -15 -22 -24 0 -8 -4 -15 -10 -15 -5
0 -10 7 -10 15 0 9 -10 19 -22 24 l-22 8 22 12 c12 6 22 18 22 26 0 8 5 15 10
15 6 0 10 -7 10 -15z m-4060 -134 c5 -11 10 -32 11 -48 1 -32 5 -24 14 30 l6
37 59 0 c54 0 60 -2 60 -20 0 -11 -7 -23 -15 -26 -8 -4 -15 -14 -15 -25 0 -10
-5 -41 -11 -69 -8 -39 -15 -50 -30 -50 -10 0 -19 2 -19 4 0 2 7 39 15 82 8 43
13 80 10 82 -3 3 -5 -2 -5 -10 0 -9 -4 -18 -10 -20 -5 -1 -16 -32 -23 -68 -10
-49 -17 -66 -31 -68 -17 -4 -18 1 -12 45 l6 48 -15 -40 c-8 -22 -15 -41 -15
-42 0 -1 -9 -7 -21 -13 -27 -15 -49 3 -49 39 l-1 26 -13 -30 c-16 -36 -41 -59
-56 -50 -5 3 -10 32 -10 63 0 68 25 127 55 127 15 0 22 -9 26 -35 4 -19 7 -28
8 -19 2 23 40 69 56 69 8 0 19 -9 25 -19z m-200 -60 c0 -27 -7 -68 -15 -92
-15 -43 -15 -44 9 -61 17 -13 23 -25 19 -41 -4 -22 -4 -22 12 -2 22 28 49 9
55 -41 l5 -38 12 27 c20 43 72 31 74 -18 0 -19 1 -19 9 2 l9 22 53 -22 c29
-12 55 -23 57 -24 2 -1 -4 -43 -14 -93 -11 -59 -22 -90 -31 -90 -20 0 -23 11
-13 73 5 32 6 72 1 89 -7 28 -9 23 -20 -47 -13 -83 -24 -107 -43 -88 -7 7 -7
27 0 69 14 71 14 84 1 84 -5 0 -10 -15 -10 -32 0 -42 -35 -100 -57 -96 -16 3
-27 18 -38 53 -6 19 -7 19 -16 3 -12 -22 -45 -23 -53 -2 -3 9 -6 30 -7 47 l-1
32 -9 -32 c-10 -35 -29 -45 -29 -15 0 10 5 44 11 76 6 32 8 60 6 63 -3 2 -11
-28 -18 -66 -11 -66 -20 -83 -33 -63 -2 4 1 38 8 74 7 37 9 65 5 63 -4 -3 -10
-27 -14 -53 -3 -26 -10 -54 -16 -62 -10 -16 -12 -10 -10 35 1 28 0 28 -9 8
-19 -45 -33 -26 -28 39 3 39 1 54 -4 40 -25 -68 -27 -69 -27 -25 -1 23 6 76
14 118 15 82 35 111 84 121 14 3 33 9 41 13 24 13 30 3 30 -48z m5330 -286
l64 -65 66 65 66 65 42 -43 42 -43 -65 -64 -65 -64 67 -68 67 -68 -44 -45 -44
-45 -68 67 -68 67 -65 -64 -65 -65 -42 43 -43 42 65 65 64 65 -62 63 c-34 34
-62 67 -62 72 0 10 70 85 80 85 3 0 35 -29 70 -65z m-4900 -45 c11 -6 24 -27
30 -48 17 -66 -18 -142 -66 -142 -61 0 -74 128 -19 183 19 20 29 21 55 7z m93
-29 l24 -10 -13 -76 c-19 -107 -21 -114 -44 -108 -23 6 -24 10 -9 87 8 43 7
61 -1 72 -13 15 -7 44 9 44 5 0 21 -4 34 -9z m-633 -946 l0 -95 -95 0 -95 0 0
95 0 95 95 0 95 0 0 -95z"/>
<path d="M4895 1973 c-146 -19 -261 -88 -313 -187 -25 -47 -27 -61 -27 -166 0
-106 2 -119 27 -166 47 -90 109 -129 318 -204 154 -55 180 -70 180 -105 0 -43
-34 -60 -131 -63 -97 -4 -196 13 -310 54 -37 13 -69 24 -73 24 -4 0 -5 -42 -4
-92 3 -88 4 -93 26 -96 13 -2 22 -10 22 -20 0 -14 2 -14 9 -3 12 18 101 6 101
-14 0 -17 23 -25 41 -14 8 5 30 9 51 9 28 0 42 -7 61 -30 24 -29 26 -29 32 -9
6 18 12 20 48 14 23 -4 46 -10 51 -12 4 -3 28 -7 53 -9 55 -4 62 -9 56 -34 -4
-16 -1 -18 18 -15 12 3 27 9 33 15 13 13 62 13 87 -1 42 -22 159 75 201 166
18 39 22 68 22 135 0 221 -83 307 -379 396 -153 45 -181 68 -136 113 42 42
239 36 384 -13 l67 -23 0 153 0 153 -37 10 c-120 32 -362 49 -478 34z"/>
<path d="M3270 1955 c0 -5 191 -504 250 -652 24 -59 38 -83 50 -83 10 0 23 -7
30 -15 7 -9 20 -15 29 -13 36 5 91 -13 91 -30 0 -13 2 -14 9 -4 10 17 72 3 96
-22 10 -10 26 -13 50 -9 24 4 43 0 62 -13 52 -34 70 -42 84 -33 50 31 119 -17
119 -83 0 -95 -71 -147 -134 -97 -18 14 -43 21 -84 23 -54 2 -102 18 -102 34
0 4 -9 8 -20 9 -11 1 -20 -2 -20 -7 0 -4 -12 -5 -27 -1 -20 6 -27 13 -25 27 2
10 1 16 -4 12 -4 -4 -13 -3 -21 3 -10 9 -13 7 -13 -6 0 -13 -6 -16 -24 -11
l-25 6 30 -82 c17 -45 32 -85 35 -90 3 -4 97 -8 209 -8 l203 0 7 28 c3 15 51
140 106 277 54 138 150 383 213 545 l113 295 -200 3 c-110 1 -202 1 -203 -1
-2 -2 -58 -159 -123 -348 -89 -255 -121 -339 -127 -324 -5 11 -58 166 -120
345 l-112 325 -201 3 c-110 1 -201 0 -201 -3z"/>
<path d="M5580 1408 c0 -304 3 -563 6 -575 l6 -23 433 0 432 0 7 38 c3 20 6
85 6 145 l0 107 -250 0 -250 0 0 430 0 430 -195 0 -195 0 0 -552z"/>
<path d="M6110 1467 l0 -347 70 0 70 0 0 278 0 278 -70 69 -70 69 0 -347z"/>
<path d="M3832 1780 c66 -196 114 -330 119 -330 3 0 13 23 23 51 18 49 18 53
1 109 -14 48 -29 69 -83 122 -36 34 -63 56 -60 48z"/>
<path d="M5554 1630 c0 -80 2 -112 3 -72 2 39 2 105 0 145 -1 39 -3 7 -3 -73z"/>
<path d="M3246 1644 c-3 -9 -6 -32 -6 -52 0 -48 20 -29 27 27 6 41 -8 58 -21
25z"/>
<path d="M5185 1540 c3 -5 12 -10 18 -10 24 0 142 -62 183 -96 26 -21 53 -34
71 -34 15 0 45 -4 66 -9 l37 -9 0 47 0 46 -88 27 c-131 41 -303 64 -287 38z"/>
<path d="M4535 1408 c-9 -24 -48 -124 -85 -223 -61 -163 -67 -185 -63 -235 5
-50 2 -59 -22 -88 -15 -18 -32 -32 -39 -32 -6 0 -27 -38 -45 -85 l-33 -86
-194 3 c-107 2 -194 1 -194 -2 0 -3 30 -36 68 -73 l68 -67 201 0 201 0 32 83
c99 257 118 322 95 331 -20 7 -19 46 0 46 12 0 15 18 15 105 0 113 3 117 50
90 45 -26 55 -19 79 50 l23 65 -52 57 c-29 31 -57 67 -63 80 -15 33 -22 29
-42 -19z m-37 -423 c2 -1 -4 -44 -13 -95 -17 -89 -18 -91 -44 -88 -29 3 -31
13 -17 106 7 44 5 52 -8 52 -17 0 -20 9 -10 33 4 12 13 13 47 5 23 -5 43 -11
45 -13z"/>
<path d="M4745 1170 c3 -5 8 -10 11 -10 2 0 4 5 4 10 0 6 -5 10 -11 10 -5 0
-7 -4 -4 -10z"/>
<path d="M4881 1136 c33 -35 39 -37 90 -34 l54 3 -80 30 c-44 17 -84 32 -90
34 -5 2 6 -13 26 -33z"/>
<path d="M6610 833 l0 -123 25 0 c18 0 25 -5 25 -20 0 -17 2 -17 26 6 16 17
32 24 45 21 17 -5 19 0 19 45 0 49 -2 53 -70 122 l-70 71 0 -122z"/>
<path d="M6810 903 c0 -28 3 -34 10 -23 13 20 13 60 0 60 -5 0 -10 -17 -10
-37z"/>
<path d="M4602 910 c0 -14 2 -19 5 -12 2 6 2 18 0 25 -3 6 -5 1 -5 -13z"/>
<path d="M5001 854 c0 -11 3 -14 6 -6 3 7 2 16 -1 19 -3 4 -6 -2 -5 -13z"/>
<path d="M6935 832 c-4 -24 -5 -46 -2 -49 8 -7 20 63 14 79 -2 7 -7 -6 -12
-30z"/>
<path d="M5547 803 c-4 -3 -7 -13 -7 -22 1 -13 3 -13 11 2 11 19 8 33 -4 20z"/>
<path d="M7012 790 c0 -14 2 -19 5 -12 2 6 2 18 0 25 -3 6 -5 1 -5 -13z"/>
<path d="M5440 696 c0 -17 16 -30 23 -19 3 5 -1 14 -9 21 -12 10 -14 10 -14
-2z"/>
<path d="M4785 639 c61 -61 84 -75 182 -100 176 -45 406 -44 545 1 100 33 199
116 138 116 -13 0 -21 -9 -26 -29 -5 -23 -10 -28 -32 -25 -20 2 -28 9 -31 28
-5 36 -19 40 -48 14 -44 -41 -117 -26 -135 27 -4 11 -12 11 -44 1 -119 -35
-372 -34 -515 3 -85 22 -88 19 -34 -36z"/>
<path d="M6956 665 c-3 -9 -6 -26 -5 -38 1 -14 4 -9 9 13 9 37 7 52 -4 25z"/>
<path d="M6885 632 c-4 -24 -5 -46 -2 -49 8 -7 20 63 14 79 -2 7 -7 -6 -12
-30z"/>
<path d="M6256 638 c3 -15 2 -17 -3 -8 -5 10 -11 -2 -18 -35 -10 -44 -14 -50
-39 -53 -27 -3 -28 -2 -23 26 4 21 2 29 -9 29 -8 0 -14 -4 -14 -9 0 -10 -60
-48 -77 -48 -6 0 -26 12 -44 28 -18 15 -33 27 -33 27 -1 0 -12 -8 -26 -18 -13
-9 -37 -17 -52 -17 -27 0 -68 30 -68 50 0 5 -7 7 -15 4 -23 -9 -18 -38 13 -67
l28 -27 267 0 c147 0 267 4 267 8 0 4 -5 13 -11 19 -6 6 -10 33 -8 62 l4 51
-32 0 c-30 0 -32 -2 -45 -62 -11 -53 -17 -64 -36 -66 -18 -3 -22 1 -22 25 0
15 4 45 9 66 7 28 6 37 -4 37 -8 0 -12 -9 -9 -22z"/>
<path d="M6446 644 c-3 -9 -6 -30 -6 -47 0 -41 19 -23 27 26 6 37 -9 52 -21
21z m11 -26 c-3 -8 -6 -5 -6 6 -1 11 2 17 5 13 3 -3 4 -12 1 -19z"/>
<path d="M6492 555 l-22 -35 25 0 c22 0 25 4 25 35 0 19 -1 35 -2 35 -2 0 -13
-16 -26 -35z"/>
<path d="M6636 558 c-8 -33 -8 -35 9 -35 11 0 13 7 8 26 -8 35 -9 36 -17 9z"/>
<path d="M6567 548 c-7 -25 -3 -33 12 -23 13 8 15 45 2 45 -5 0 -11 -10 -14
-22z"/>
<path d="M6722 540 c-10 -16 -10 -20 2 -20 19 0 27 13 17 28 -4 8 -11 5 -19
-8z"/>
<path d="M3011 1622 c-6 -24 -10 -49 -8 -55 7 -19 28 44 25 72 -3 22 -6 20
-17 -17z"/>
<path d="M2928 1637 c-5 -10 -8 -33 -7 -50 0 -31 1 -31 10 -7 5 13 9 36 7 50
-3 21 -4 22 -10 7z"/>
<path d="M2826 1615 c-3 -9 -6 -29 -5 -43 1 -22 3 -19 10 12 10 40 6 60 -5 31z"/>
<path d="M2771 1604 c0 -11 3 -14 6 -6 3 7 2 16 -1 19 -3 4 -6 -2 -5 -13z"/>
<path d="M2791 1584 c0 -11 3 -14 6 -6 3 7 2 16 -1 19 -3 4 -6 -2 -5 -13z"/>
<path d="M2761 1554 c0 -11 3 -14 6 -6 3 7 2 16 -1 19 -3 4 -6 -2 -5 -13z"/>
<path d="M2742 1450 c0 -14 2 -19 5 -12 2 6 2 18 0 25 -3 6 -5 1 -5 -13z"/>
<path d="M2761 1414 c0 -11 3 -14 6 -6 3 7 2 16 -1 19 -3 4 -6 -2 -5 -13z"/>
<path d="M2897 1380 c-4 -14 -6 -38 -6 -55 l1 -30 9 34 c6 18 9 43 7 55 -3 20
-4 19 -11 -4z"/>
<path d="M2976 1329 c-9 -45 -8 -75 3 -63 13 14 23 82 13 88 -5 3 -12 -8 -16
-25z"/>
<path d="M8085 1360 l-29 -31 67 -67 67 -67 -67 -67 -68 -68 33 -32 32 -33 68
68 67 67 68 -67 67 -68 32 33 33 32 -68 68 -67 68 65 64 65 64 -32 33 -32 33
-66 -65 -66 -65 -64 65 c-35 36 -67 65 -70 65 -4 0 -19 -14 -35 -30z"/>
<path d="M3249 1220 c-9 -31 -10 -43 -1 -52 16 -16 23 -6 29 40 7 55 -13 63
-28 12z"/>
<path d="M2584 401 c-2 -2 -4 -37 -4 -78 l0 -73 75 0 75 0 0 74 0 74 -71 4
c-39 2 -73 1 -75 -1z"/>
</g>
</svg>
